<?xml version="1.0" standalone="no"?>
<!DOCTYPE svg PUBLIC "-//W3C//DTD SVG 20010904//EN"
 "http://www.w3.org/TR/2001/REC-SVG-20010904/DTD/svg10.dtd">
<svg version="1.0" xmlns="http://www.w3.org/2000/svg"
 width="300.000000pt" height="300.000000pt" viewBox="0 0 300.000000 300.000000"
 preserveAspectRatio="xMidYMid meet">
<metadata>
Created by potrace 1.14, written by Peter Selinger 2001-2017
</metadata>
<g transform="translate(0.000000,300.000000) scale(0.100000,-0.100000)"
fill="#000000" stroke="none">
<path d="M654 2653 c-11 -2 -41 -24 -65 -49 l-44 -45 -5 -214 c-5 -202 -6
-215 -27 -242 -13 -15 -30 -41 -39 -58 -9 -16 -37 -52 -60 -79 -24 -26 -44
-54 -44 -61 0 -7 -20 -35 -44 -61 -70 -79 -86 -117 -86 -207 0 -62 5 -90 24
-132 28 -60 49 -78 118 -101 29 -9 56 -27 68 -44 19 -27 20 -43 20 -535 0
-504 0 -506 22 -545 14 -23 38 -46 63 -58 39 -19 69 -20 890 -22 468 -2 858
-2 868 -2 10 1 43 25 72 53 l55 52 -7 523 -6 524 23 25 c13 14 29 25 37 25 7
0 37 12 67 27 49 23 58 33 80 84 20 43 26 73 26 125 0 84 -22 136 -85 206 -25
28 -45 56 -45 63 0 7 -20 35 -43 61 -24 27 -62 78 -85 113 l-42 65 0 180 c0
170 -2 184 -24 233 -19 40 -34 57 -68 75 l-43 23 -775 1 c-426 1 -784 0 -796
-3z m160 -603 c16 -6 26 -17 26 -29 0 -11 -43 -96 -96 -188 -179 -314 -170
-303 -269 -303 -42 0 -60 5 -82 24 -24 21 -27 31 -27 78 1 68 11 87 138 256
100 134 119 152 181 165 38 9 104 7 129 -3z m1409 1 c52 -12 73 -33 189 -189
110 -148 118 -163 118 -232 0 -72 -22 -93 -101 -97 -80 -5 -112 13 -155 88
-178 306 -215 372 -217 391 -4 42 75 60 166 39z m-1114 -15 c12 -15 10 -26
-57 -267 -46 -165 -62 -208 -85 -224 -31 -22 -229 -21 -247 0 -16 19 -9 36 97
225 98 174 152 258 172 270 25 15 107 12 120 -4z m278 -16 c10 -19 13 -80 11
-243 -4 -264 6 -247 -146 -247 -116 0 -142 9 -142 47 0 14 26 116 57 227 67
236 75 249 155 244 44 -3 55 -7 65 -28z m253 20 c10 -5 27 -38 39 -72 29 -92
111 -380 111 -395 0 -6 -7 -19 -16 -27 -12 -13 -39 -16 -125 -16 -157 0 -149
-14 -149 258 0 255 2 262 76 262 25 0 54 -4 64 -10z m273 -10 c25 -20 58 -72
198 -320 80 -140 82 -146 63 -165 -19 -19 -199 -21 -238 -4 -29 13 -39 40
-111 296 -45 161 -51 194 -38 206 15 16 101 7 126 -13z m344 -708 c18 -10 22
-24 28 -104 4 -51 5 -260 3 -465 -2 -288 -6 -375 -16 -385 -19 -19 -375 -19
-394 0 -10 10 -14 101 -18 398 l-5 386 -32 28 c-43 38 -85 42 -404 38 -232 -3
-268 -5 -292 -21 -58 -37 -58 -43 -56 -458 1 -278 -2 -384 -10 -392 -15 -15
-436 -17 -448 -2 -5 6 -6 222 -3 481 4 371 8 474 18 487 19 22 22 22 862 22
563 0 750 -3 767 -13z"/>
</g>
</svg>
